<?xml version="1.0" encoding="UTF-8" standalone="no"?><!DOCTYPE svg PUBLIC "-//W3C//DTD SVG 1.1//EN" "http://www.w3.org/Graphics/SVG/1.1/DTD/svg11.dtd"><svg width="100%" height="100%" viewBox="0 0 38 38" version="1.1" xmlns="http://www.w3.org/2000/svg" xmlns:xlink="http://www.w3.org/1999/xlink" xml:space="preserve" xmlns:serif="http://www.serif.com/" style="fill-rule:evenodd;clip-rule:evenodd;stroke-linejoin:round;stroke-miterlimit:1.41421;"><path id="Stats" d="M35.333,37.333l-33.333,0c-1.104,0 -2,-0.896 -2,-2l0,-33.333c0,-1.1 0.89,-1.994 2,-2l33.333,0c1.11,0.006 2,0.9 2,2l0,33.333c0,1.1 -0.89,1.994 -2,2Zm-0.666,-27.187l-14.57,14.57l0.323,0.323l-2.438,2.438l-6.932,-6.933l-8.383,8.789l0,3.334c0,1.104 0.895,2 2,2l28,0c1.11,-0.006 2,-0.899 2,-2l0,-22.521Zm-21.237,7.903l4.229,4.229l16,-16l1.004,1.004c-0.025,-1.165 -0.909,-4.615 -1.996,-4.615l-28,0c-1.105,0 -2,0.895 -2,2l0,19.269l8.325,-8.325l2.438,2.438l0,0Z" style="fill:#88939b;"/></svg>