<?xml version="1.0" encoding="UTF-8" standalone="no"?><!DOCTYPE svg PUBLIC "-//W3C//DTD SVG 1.1//EN" "http://www.w3.org/Graphics/SVG/1.1/DTD/svg11.dtd"><svg width="100%" height="100%" viewBox="0 0 38 38" version="1.1" xmlns="http://www.w3.org/2000/svg" xmlns:xlink="http://www.w3.org/1999/xlink" xml:space="preserve" xmlns:serif="http://www.serif.com/" style="fill-rule:evenodd;clip-rule:evenodd;stroke-linejoin:round;stroke-miterlimit:1.41421;"><path id="User" d="M35.333,37.333l-33.333,0c-1.104,0 -2,-0.896 -2,-2l0,-33.333c0,-1.097 0.886,-1.989 2,-2l33.333,0c1.115,0.011 2,0.903 2,2l0,33.333c0,1.098 -0.885,1.99 -2,2Zm-0.666,-34.666l-32,0l0,32l32,0l0,-32Zm-19.773,8.883c-0.117,-0.541 -0.065,-2.171 4.539,-2.21c5.329,0.047 5.317,4.4 5.317,4.4l-0.018,1.597l-0.159,2.094c0.057,-0.021 0.753,-0.031 0.823,-0.031c0.622,0 0.572,1.179 0.572,1.179c0,0 -0.748,2.527 -1.775,2.652c-0.089,0.011 -0.165,0.017 -0.236,0.021c-0.186,1.346 -1.613,2.254 -1.613,2.254l0,2.139l1.889,0.942l5.885,1.814c0,0 1.855,0.587 1.861,3.15c0.005,2.562 0.021,3.116 0.021,3.116l-26.629,0l-0.039,-3.131c-0.011,-2.548 2.01,-3.156 2.01,-3.156l5.692,-1.796l3.26,-0.993l-0.013,-2.043c0,0 -1.439,-0.657 -1.442,-2.298c-0.063,-0.004 -0.13,-0.01 -0.208,-0.019c-1.026,-0.125 -1.906,-1.659 -1.981,-2.7c-0.075,-1.042 0.816,-1.131 0.816,-1.131l0.778,0.246c0,0 -0.339,-0.967 -0.339,-3.663c0,-1.238 0.072,-2.921 0.762,-3.316l0.227,0.883c0.017,0.112 0.046,0.177 0.046,0.177l-0.046,-0.177Z" style="fill:#88939b;"/></svg>