<?xml version="1.0" encoding="UTF-8" standalone="no"?><!DOCTYPE svg PUBLIC "-//W3C//DTD SVG 1.1//EN" "http://www.w3.org/Graphics/SVG/1.1/DTD/svg11.dtd"><svg width="100%" height="100%" viewBox="0 0 38 38" version="1.1" xmlns="http://www.w3.org/2000/svg" xmlns:xlink="http://www.w3.org/1999/xlink" xml:space="preserve" xmlns:serif="http://www.serif.com/" style="fill-rule:evenodd;clip-rule:evenodd;stroke-linejoin:round;stroke-miterlimit:1.41421;"><path id="Grid-2" serif:id="Grid 2" d="M35.333,37.333l-33.333,0c-1.104,0 -2,-0.896 -2,-2l0,-33.333c0,-1.102 0.893,-1.997 2,-2l33.333,0c1.108,0.003 2,0.898 2,2l0,33.333c0,1.102 -0.892,1.997 -2,2Zm-0.666,-34.666l-32,0l0,32l32,0l0,-32Zm-18.667,26.666l-8,0l0,-8l8,0l0,8Zm13.333,0l-8,0l0,-8l8,0l0,8Zm-13.333,-21.333l0,8l-8,0l0,-8l8,0Zm13.333,0l0,8l-8,0l0,-8l8,0Z" style="fill:#88939b;"/></svg>