<?xml version="1.0" encoding="UTF-8" standalone="no"?><!DOCTYPE svg PUBLIC "-//W3C//DTD SVG 1.1//EN" "http://www.w3.org/Graphics/SVG/1.1/DTD/svg11.dtd"><svg width="100%" height="100%" viewBox="0 0 38 38" version="1.1" xmlns="http://www.w3.org/2000/svg" xmlns:xlink="http://www.w3.org/1999/xlink" xml:space="preserve" xmlns:serif="http://www.serif.com/" style="fill-rule:evenodd;clip-rule:evenodd;stroke-linejoin:round;stroke-miterlimit:1.41421;"><path id="Chart" d="M35.333,37.333l-33.333,0c-1.104,0 -2,-0.896 -2,-2l0,-33.333c0,-1.102 0.894,-1.997 2,-2l33.333,0c1.107,0.003 2,0.898 2,2l0,33.333c0,1.103 -0.893,1.998 -2,2Zm-0.666,-34.666l-32,0l0,32l5.333,0l0,-13.334l5.333,0l0,13.334l2.667,0l0,-18.667l5.333,0l0,18.667l2.667,0l0,-24l5.333,0l0,24l5.334,0l0,-32Z" style="fill:#88939b;"/></svg>