<?xml version="1.0" encoding="UTF-8" standalone="no"?><!DOCTYPE svg PUBLIC "-//W3C//DTD SVG 1.1//EN" "http://www.w3.org/Graphics/SVG/1.1/DTD/svg11.dtd"><svg width="100%" height="100%" viewBox="0 0 38 38" version="1.1" xmlns="http://www.w3.org/2000/svg" xmlns:xlink="http://www.w3.org/1999/xlink" xml:space="preserve" xmlns:serif="http://www.serif.com/" style="fill-rule:evenodd;clip-rule:evenodd;stroke-linejoin:round;stroke-miterlimit:1.41421;"><path id="Marker-1" serif:id="Marker 1" d="M35.333,37.333l-33.333,0c-1.104,0 -2,-0.896 -2,-2l0,-33.333c0,-1.102 0.893,-1.997 2,-2l33.333,0c1.108,0.003 2,0.898 2,2l0,33.333c0,1.102 -0.892,1.997 -2,2Zm-0.666,-34.666l-32,0l0,32l32,0l0,-32Zm-15.999,7.999c4.419,0 8.002,3.475 8.002,7.762c0,4.286 -3.583,7.761 -8.002,7.761c-4.419,0 -8.001,-3.475 -8.001,-7.761c0,-4.287 3.582,-7.762 8.001,-7.762Zm0.011,3.874c2.222,0 4.024,1.726 4.024,3.854c0,2.129 -1.802,3.854 -4.024,3.854c-2.222,0 -4.023,-1.725 -4.023,-3.854c0,-2.128 1.801,-3.854 4.023,-3.854Z" style="fill:#88939b;"/></svg>